<?xml version="1.0" encoding="UTF-8" standalone="no"?>
<!-- Created with Inkscape (http://www.inkscape.org/) -->

<svg
   width="210mm"
   height="297mm"
   viewBox="0 0 210 297"
   version="1.1"
   id="svg5"
   inkscape:version="1.1.1 (3bf5ae0d25, 2021-09-20)"
   sodipodi:docname="dw_logo.svg"
   inkscape:export-filename="C:\Users\clean\Desktop\SoftLand-pro-dev\src\assets\img\dw.png"
   inkscape:export-xdpi="300"
   inkscape:export-ydpi="300"
   xmlns:inkscape="http://www.inkscape.org/namespaces/inkscape"
   xmlns:sodipodi="http://sodipodi.sourceforge.net/DTD/sodipodi-0.dtd"
   xmlns="http://www.w3.org/2000/svg"
   xmlns:svg="http://www.w3.org/2000/svg">
  <sodipodi:namedview
     id="namedview7"
     pagecolor="#ffffff"
     bordercolor="#666666"
     borderopacity="1.0"
     inkscape:pageshadow="2"
     inkscape:pageopacity="0.0"
     inkscape:pagecheckerboard="0"
     inkscape:document-units="mm"
     showgrid="false"
     inkscape:zoom="2.0762433"
     inkscape:cx="407.70752"
     inkscape:cy="396.62982"
     inkscape:window-width="1920"
     inkscape:window-height="1009"
     inkscape:window-x="1912"
     inkscape:window-y="-8"
     inkscape:window-maximized="1"
     inkscape:current-layer="g25095" />
  <defs
     id="defs2" />
  <g
     inkscape:label="Layer 1"
     inkscape:groupmode="layer"
     id="layer1">
    <g
       id="g25095"
       transform="matrix(5.062623,0,0,5.062623,-301.9111,-358.29517)"
       inkscape:export-filename="C:\Users\clean\Desktop\dw.png"
       inkscape:export-xdpi="300"
       inkscape:export-ydpi="300">
      <path
         id="path24726"
         style="font-size:10.5833px;line-height:1.25;font-family:Righteous;-inkscape-font-specification:Righteous;fill:#d1d1e9;stroke-width:0.999999;fill-opacity:1"
         d="m 296.86914,333.32812 v 9.76563 c -0.28646,-0.41667 -0.63802,-0.76823 -1.05469,-1.05469 -0.41666,-0.28645 -0.86588,-0.51432 -1.34765,-0.68359 -0.46875,-0.18228 -0.95704,-0.31249 -1.46485,-0.39063 -0.49479,-0.0781 -0.97656,-0.11718 -1.44531,-0.11718 -1.47135,0 -2.85808,0.27995 -4.16016,0.83984 -1.28905,0.55989 -2.42187,1.33464 -3.39843,2.32422 -0.96354,0.98958 -1.72527,2.16146 -2.28516,3.51562 -0.55989,1.35417 -0.83984,2.81902 -0.83984,4.39454 0,1.58852 0.27995,3.05989 0.83984,4.41406 0.55989,1.34114 1.32162,2.50651 2.28516,3.49609 0.97656,0.97656 2.10938,1.74479 3.39843,2.30469 1.30208,0.54687 2.68881,0.82031 4.16016,0.82031 0.67708,0 1.34115,-0.0846 1.99219,-0.25391 0.66406,-0.16925 1.30859,-0.39713 1.93359,-0.68359 0.48589,-0.23282 0.94995,-0.49334 1.39649,-0.78125 v -0.13867 c -0.63839,-0.76554 -1.17368,-1.61109 -1.60352,-2.53711 -0.3029,-0.66129 -0.53259,-1.34198 -0.69141,-2.04102 -0.3019,0.2324 -0.62541,0.43967 -0.97656,0.61524 -0.63802,0.3125 -1.32161,0.46875 -2.05078,0.46875 -0.72916,0 -1.41927,-0.14974 -2.07031,-0.44922 -0.63802,-0.29948 -1.19792,-0.70963 -1.67969,-1.23047 -0.46875,-0.52083 -0.83984,-1.12631 -1.11328,-1.8164 -0.27344,-0.69011 -0.41016,-1.41929 -0.41016,-2.1875 0,-0.88542 0.13672,-1.6797 0.41016,-2.38282 0.27344,-0.70312 0.64453,-1.29557 1.11328,-1.77734 0.48177,-0.49479 1.04167,-0.8724 1.67969,-1.13281 0.65104,-0.26042 1.34115,-0.39063 2.07031,-0.39063 0.72917,0 1.41276,0.16276 2.05078,0.48828 0.65104,0.3125 1.21745,0.73568 1.69922,1.26953 0.48177,0.52084 0.85938,1.12631 1.13281,1.81641 0.28646,0.67708 0.42969,1.38021 0.42969,2.10938 0,0.15213 -0.011,0.30268 -0.0234,0.45312 h 5.39453 v -19.04688 z"
         transform="scale(0.26458333)" />
      <path
         id="path24519"
         style="font-size:10.5833px;line-height:1.25;font-family:Righteous;-inkscape-font-specification:Righteous;fill:#fffffe;stroke-width:0.999999;fill-opacity:1"
         d="m 307.52344,341.6875 v 13.32031 c 0,0.36459 -0.0716,0.70964 -0.21485,1.03516 -0.13019,0.31249 -0.31899,0.59243 -0.5664,0.83984 -0.2474,0.23439 -0.53386,0.42319 -0.85938,0.56641 -0.32552,0.13022 -0.67057,0.19531 -1.03515,0.19531 -0.36459,0 -0.70964,-0.0651 -1.03516,-0.19531 -0.31251,-0.14322 -0.59246,-0.33203 -0.83984,-0.56641 -0.23439,-0.24739 -0.42319,-0.52734 -0.56641,-0.83984 -0.13022,-0.32552 -0.19531,-0.67057 -0.19531,-1.03516 v -1.24023 h -5.33203 v 1.24023 c 0,1.09375 0.20833,2.12891 0.625,3.10547 0.41666,0.96354 0.98307,1.80339 1.69921,2.51953 0.72917,0.71614 1.57553,1.28256 2.53907,1.69922 0.96354,0.41667 1.9987,0.625 3.10547,0.625 1.0026,0 1.95312,-0.16927 2.85156,-0.50781 0.91145,-0.35156 1.73177,-0.85938 2.46094,-1.52344 0.74218,0.66406 1.56901,1.17188 2.48046,1.52344 0.91146,0.33854 1.86199,0.50781 2.85157,0.50781 1.10677,0 2.14193,-0.20833 3.10547,-0.625 0.97656,-0.41666 1.82292,-0.98308 2.53906,-1.69922 0.72917,-0.71614 1.30208,-1.55599 1.71875,-2.51953 0.41666,-0.97656 0.625,-2.01172 0.625,-3.10547 V 341.6875 h -5.3125 v 13.32031 c 0,0.36459 -0.0716,0.70964 -0.21485,1.03516 -0.14321,0.31249 -0.33852,0.59243 -0.58593,0.83984 -0.23438,0.23439 -0.51433,0.42319 -0.83985,0.56641 -0.32552,0.13022 -0.67057,0.19531 -1.03515,0.19531 -0.36458,0 -0.70964,-0.0651 -1.03516,-0.19531 -0.31249,-0.14322 -0.59243,-0.33203 -0.83984,-0.56641 -0.23439,-0.24739 -0.42319,-0.52734 -0.56641,-0.83984 -0.14322,-0.32552 -0.21484,-0.67057 -0.21484,-1.03516 V 341.6875 Z"
         transform="scale(0.26458333)" />
    </g>
  </g>
</svg>
